<svg xmlns="http://www.w3.org/2000/svg" xmlns:xlink="http://www.w3.org/1999/xlink" width="400" zoomAndPan="magnify" viewBox="0 0 300 110.249996" height="147" preserveAspectRatio="xMidYMid meet" version="1.0"><defs><g/><clipPath id="76bf7b4742"><path d="M 1.011719 0 L 298.984375 0 L 298.984375 109.503906 L 1.011719 109.503906 Z M 1.011719 0 " clip-rule="nonzero"/></clipPath><clipPath id="c1e56f94ea"><path d="M 1.011719 17 L 48 17 L 48 109 L 1.011719 109 Z M 1.011719 17 " clip-rule="nonzero"/></clipPath><clipPath id="163cb6d50b"><path d="M 46 17 L 91.753906 17 L 91.753906 60 L 46 60 Z M 46 17 " clip-rule="nonzero"/></clipPath></defs><g clip-path="url(#76bf7b4742)"><path fill="#ffffff" d="M 1.011719 0 L 298.988281 0 L 298.988281 116.953125 L 1.011719 116.953125 Z M 1.011719 0 " fill-opacity="1" fill-rule="nonzero"/><path fill="#ffffff" d="M 1.011719 0 L 298.988281 0 L 298.988281 109.503906 L 1.011719 109.503906 Z M 1.011719 0 " fill-opacity="1" fill-rule="nonzero"/><path fill="#ffffff" d="M 1.011719 0 L 298.988281 0 L 298.988281 109.503906 L 1.011719 109.503906 Z M 1.011719 0 " fill-opacity="1" fill-rule="nonzero"/></g><g fill="#ec1d27" fill-opacity="1"><g transform="translate(58.1355, 100.515502)"><g><path d="M 3.21875 0 L 3.21875 -36.265625 L 22.484375 -36.265625 L 22.484375 -31.5 L 8.03125 -31.5 L 8.03125 -22.484375 L 17.65625 -22.484375 L 16.578125 -17.65625 L 8.03125 -17.65625 L 8.03125 -4.8125 L 22.484375 -4.8125 L 22.484375 0 Z M 3.21875 0 "/></g></g></g><g fill="#ec1d27" fill-opacity="1"><g transform="translate(91.494134, 100.515502)"><g><path d="M 3.21875 0 L 3.21875 -36.265625 L 18.75 -36.265625 C 19.75 -36.265625 20.609375 -35.898438 21.328125 -35.171875 C 22.054688 -34.441406 22.421875 -33.5625 22.421875 -32.53125 L 22.421875 -3.734375 C 22.421875 -2.691406 22.054688 -1.804688 21.328125 -1.078125 C 20.609375 -0.359375 19.75 0 18.75 0 Z M 8.03125 -4.8125 L 15.796875 -4.8125 C 16.273438 -4.8125 16.703125 -4.992188 17.078125 -5.359375 C 17.460938 -5.722656 17.65625 -6.164062 17.65625 -6.6875 L 17.65625 -29.578125 C 17.65625 -30.097656 17.460938 -30.535156 17.078125 -30.890625 C 16.703125 -31.253906 16.273438 -31.4375 15.796875 -31.4375 L 8.03125 -31.4375 Z M 8.03125 -4.8125 "/></g></g></g><g fill="#ec1d27" fill-opacity="1"><g transform="translate(124.800969, 100.515502)"><g><path d="M 6.9375 0 C 5.90625 0 5.023438 -0.359375 4.296875 -1.078125 C 3.578125 -1.804688 3.21875 -2.691406 3.21875 -3.734375 L 3.21875 -36.265625 L 8.03125 -36.265625 L 8.03125 -6.625 C 8.03125 -6.144531 8.207031 -5.722656 8.5625 -5.359375 C 8.925781 -4.992188 9.367188 -4.8125 9.890625 -4.8125 L 15.75 -4.8125 C 16.257812 -4.8125 16.695312 -4.992188 17.0625 -5.359375 C 17.425781 -5.722656 17.609375 -6.144531 17.609375 -6.625 L 17.609375 -36.265625 L 22.421875 -36.265625 L 22.421875 -3.734375 C 22.421875 -2.691406 22.054688 -1.804688 21.328125 -1.078125 C 20.609375 -0.359375 19.734375 0 18.703125 0 Z M 6.9375 0 "/></g></g></g><g fill="#211d1d" fill-opacity="1"><g transform="translate(158.107753, 100.515502)"><g><path d="M 10.203125 0 L 10.203125 -31.4375 L 3 -31.4375 L 3 -36.265625 L 22.21875 -36.265625 L 22.21875 -31.4375 L 15.015625 -31.4375 L 15.015625 0 Z M 10.203125 0 "/></g></g></g><g fill="#211d1d" fill-opacity="1"><g transform="translate(191.000225, 100.515502)"><g><path d="M 3.21875 0 L 3.21875 -36.265625 L 22.484375 -36.265625 L 22.484375 -31.5 L 8.03125 -31.5 L 8.03125 -22.484375 L 17.65625 -22.484375 L 16.578125 -17.65625 L 8.03125 -17.65625 L 8.03125 -4.8125 L 22.484375 -4.8125 L 22.484375 0 Z M 3.21875 0 "/></g></g></g><g fill="#211d1d" fill-opacity="1"><g transform="translate(224.358858, 100.515502)"><g><path d="M 6.9375 0 C 5.96875 0 5.101562 -0.359375 4.34375 -1.078125 C 3.59375 -1.804688 3.21875 -2.691406 3.21875 -3.734375 L 3.21875 -32.53125 C 3.21875 -33.53125 3.59375 -34.398438 4.34375 -35.140625 C 5.101562 -35.890625 5.96875 -36.265625 6.9375 -36.265625 L 18.703125 -36.265625 C 19.765625 -36.265625 20.648438 -35.890625 21.359375 -35.140625 C 22.066406 -34.398438 22.421875 -33.53125 22.421875 -32.53125 L 22.421875 -25.796875 L 17.609375 -24.703125 L 17.609375 -29.578125 C 17.609375 -30.054688 17.441406 -30.484375 17.109375 -30.859375 C 16.785156 -31.242188 16.347656 -31.4375 15.796875 -31.4375 L 9.890625 -31.4375 C 9.410156 -31.4375 8.976562 -31.242188 8.59375 -30.859375 C 8.21875 -30.484375 8.03125 -30.054688 8.03125 -29.578125 L 8.03125 -6.6875 C 8.03125 -6.132812 8.21875 -5.679688 8.59375 -5.328125 C 8.976562 -4.984375 9.410156 -4.8125 9.890625 -4.8125 L 15.796875 -4.8125 C 16.347656 -4.8125 16.785156 -4.984375 17.109375 -5.328125 C 17.441406 -5.679688 17.609375 -6.132812 17.609375 -6.6875 L 17.609375 -10.46875 L 22.421875 -11.609375 L 22.421875 -3.734375 C 22.421875 -2.691406 22.066406 -1.804688 21.359375 -1.078125 C 20.648438 -0.359375 19.765625 0 18.703125 0 Z M 6.9375 0 "/></g></g></g><g fill="#211d1d" fill-opacity="1"><g transform="translate(257.665688, 100.515502)"><g><path d="M 3.21875 0 L 3.21875 -36.265625 L 8.03125 -36.265625 L 8.03125 -22.484375 L 17.65625 -22.484375 L 17.65625 -36.265625 L 22.421875 -36.265625 L 22.421875 0 L 17.65625 0 L 17.65625 -17.65625 L 8.03125 -17.65625 L 8.03125 0 Z M 3.21875 0 "/></g></g></g><path fill="#2f1514" d="M 47.667969 43.375 L 54.84375 43.375 L 54.84375 36.214844 L 47.667969 36.214844 L 47.667969 43.375 " fill-opacity="1" fill-rule="nonzero"/><path fill="#2f1514" d="M 37.785156 43.375 L 44.960938 43.375 L 44.960938 36.214844 L 37.785156 36.214844 L 37.785156 43.375 " fill-opacity="1" fill-rule="nonzero"/><path fill="#2f1514" d="M 47.667969 53.5625 L 54.84375 53.5625 L 54.84375 46.398438 L 47.667969 46.398438 L 47.667969 53.5625 " fill-opacity="1" fill-rule="nonzero"/><path fill="#2f1514" d="M 37.785156 53.5625 L 44.960938 53.5625 L 44.960938 46.398438 L 37.785156 46.398438 L 37.785156 53.5625 " fill-opacity="1" fill-rule="nonzero"/><g clip-path="url(#c1e56f94ea)"><path fill="#ef9b11" d="M 5.824219 30.867188 L 28.539062 17.773438 L 28.539062 20.359375 L 45.652344 20.359375 L 11.683594 39.9375 L 11.683594 79.863281 L 44.339844 98.6875 C 46.921875 100.175781 47.804688 103.472656 46.316406 106.050781 C 44.824219 108.628906 41.523438 109.511719 38.941406 108.023438 L 5.824219 88.929688 C 2.78125 87.175781 0.890625 83.90625 0.890625 80.394531 L 0.890625 39.40625 C 0.890625 35.894531 2.78125 32.625 5.824219 30.867188 " fill-opacity="1" fill-rule="nonzero"/></g><g clip-path="url(#163cb6d50b)"><path fill="#ef9b11" d="M 64.089844 20.359375 L 64.089844 17.773438 L 86.804688 30.867188 C 89.847656 32.625 91.738281 35.894531 91.738281 39.40625 L 91.738281 53.832031 C 91.738281 56.808594 89.324219 59.222656 86.34375 59.222656 C 83.363281 59.222656 80.945312 56.808594 80.945312 53.832031 L 80.945312 39.9375 L 46.980469 20.359375 L 64.089844 20.359375 " fill-opacity="1" fill-rule="nonzero"/></g><path fill="#2f1514" d="M 46.316406 0.00390625 L 71.847656 8.546875 L 46.316406 17.089844 L 20.78125 8.546875 L 46.316406 0.00390625 " fill-opacity="1" fill-rule="nonzero"/><path fill="#2f1514" d="M 30.699219 18.203125 L 61.929688 18.203125 L 61.929688 11.808594 L 30.699219 11.808594 L 30.699219 18.203125 " fill-opacity="1" fill-rule="nonzero"/><path fill="#2f1514" d="M 25.328125 16.535156 C 25.460938 16.144531 25.429688 15.703125 25.191406 15.367188 C 25.117188 15.265625 25.074219 15.140625 25.074219 15.007812 C 25.074219 14.816406 25.160156 14.652344 25.289062 14.535156 L 25.289062 9.742188 L 26.109375 9.742188 L 26.109375 14.535156 C 26.242188 14.652344 26.328125 14.816406 26.328125 15.007812 C 26.328125 15.140625 26.285156 15.265625 26.210938 15.367188 C 25.96875 15.703125 25.9375 16.144531 26.074219 16.535156 L 26.640625 18.203125 L 24.761719 18.203125 L 25.328125 16.535156 " fill-opacity="1" fill-rule="nonzero"/></svg>